<svg xmlns="http://www.w3.org/2000/svg" width="672" height="524" viewBox="0 0 672 524" version="1.1"><path d="M 612 55.500 C 613.866 57.425, 615.617 59, 615.892 59 C 616.167 59, 614.866 57.425, 613 55.500 C 611.134 53.575, 609.383 52, 609.108 52 C 608.833 52, 610.134 53.575, 612 55.500 M 647.500 89 C 650.209 91.750, 652.650 94, 652.925 94 C 653.200 94, 651.209 91.750, 648.500 89 C 645.791 86.250, 643.350 84, 643.075 84 C 642.800 84, 644.791 86.250, 647.500 89 M 580.046 122.335 L 576.592 126.500 580.796 122.547 C 583.108 120.373, 585 118.460, 585 118.297 C 585 117.148, 582.986 118.789, 580.046 122.335 M 611.477 137.250 L 603.500 145.500 611.750 137.523 C 616.288 133.136, 620 129.424, 620 129.273 C 620 128.544, 618.885 129.588, 611.477 137.250 M 583 164.500 C 580.571 166.975, 578.809 169, 579.084 169 C 579.359 169, 581.571 166.975, 584 164.500 C 586.429 162.025, 588.191 160, 587.916 160 C 587.641 160, 585.429 162.025, 583 164.500 M 66.448 205.867 C 51.610 206.717, 47.744 209.293, 46.381 219.240 C 45.891 222.811, 46.223 224.829, 47.853 228.197 C 51.576 235.888, 52.666 236.159, 80.602 236.341 C 104.371 236.495, 105.098 236.441, 105.427 234.500 C 106.954 225.489, 109.808 206.474, 109.655 206.322 C 109.025 205.691, 75.655 205.340, 66.448 205.867 M 164.594 215.174 C 163.210 219.753, 161.606 225.750, 161.031 228.500 C 160.455 231.250, 159.751 234.527, 159.465 235.782 L 158.946 238.064 175.223 237.406 C 188.883 236.854, 192.026 236.432, 194.774 234.778 C 202.708 230.003, 203.807 218.297, 197.035 210.711 L 194.169 207.500 180.640 207.174 L 167.111 206.847 164.594 215.174 M 486.176 211.138 C 478.775 213.270, 471.965 223.363, 472.022 232.116 C 472.071 239.727, 480.128 249.976, 487.169 251.384 C 488.864 251.723, 511.231 251.990, 536.875 251.978 C 580.206 251.958, 583.790 251.824, 587.605 250.092 C 602.738 243.219, 604.403 222.598, 590.580 213.250 L 585.774 210 537.637 210.090 C 510.249 210.142, 488.067 210.593, 486.176 211.138 M 134 266 C 72.529 266.442, 64.096 266.688, 61 268.131 C 51.089 272.749, 45.497 286.445, 49.172 297.101 C 50.935 302.213, 54.011 305.908, 58.890 308.775 L 63.279 311.354 140.674 311.150 C 215.639 310.952, 218.239 310.882, 223.474 308.924 C 226.671 307.728, 230.112 305.497, 231.897 303.465 C 234.965 299.970, 238 291.782, 238 286.997 C 238 281.541, 234.901 275.083, 230.369 271.094 C 225.168 266.515, 219.496 264.888, 210 265.251 C 206.425 265.388, 172.225 265.725, 134 266 M 503 279.910 C 495.652 281.421, 491.483 285.554, 490.484 292.320 C 489.611 298.232, 491.729 303.685, 496.342 307.403 L 500.185 310.500 548.016 310.500 C 594.764 310.500, 595.910 310.453, 598.612 308.438 C 603.312 304.933, 605.302 301.408, 605.753 295.791 C 606.255 289.545, 603.739 284.927, 597.997 281.554 C 594.624 279.573, 592.937 279.495, 550.500 279.345 C 526.300 279.260, 504.925 279.515, 503 279.910 M 80.481 362.250 L 70.500 372.500 80.750 362.519 C 90.270 353.248, 91.455 352, 90.731 352 C 90.583 352, 85.971 356.613, 80.481 362.250 M 39 402.500 C 34.903 406.625, 31.775 410, 32.050 410 C 32.325 410, 35.903 406.625, 40 402.500 C 44.097 398.375, 47.225 395, 46.950 395 C 46.675 395, 43.097 398.375, 39 402.500 M 37 453.500 C 38.866 455.425, 40.617 457, 40.892 457 C 41.167 457, 39.866 455.425, 38 453.500 C 36.134 451.575, 34.383 450, 34.108 450 C 33.833 450, 35.134 451.575, 37 453.500 M 61 476.500 C 64.543 480.075, 67.667 483, 67.942 483 C 68.217 483, 65.543 480.075, 62 476.500 C 58.457 472.925, 55.333 470, 55.058 470 C 54.783 470, 57.457 472.925, 61 476.500" stroke="none" fill="#f45b20" fillRule="evenodd"/><path d="M 570 36.109 L 570 56.450 576.723 63.225 L 583.446 70 533.668 70 L 483.890 70 478.195 66.177 C 462.600 55.710, 435.764 42.315, 419 36.631 C 396.518 29.009, 375.911 25.252, 351.500 24.327 C 296.031 22.225, 243.390 38.784, 198 72.613 C 184.440 82.719, 162.554 104.596, 152.444 118.149 C 126.573 152.831, 110.205 192.915, 105.689 232.647 C 105.240 236.599, 105.359 236.822, 108.234 237.397 C 109.893 237.729, 121.963 238, 135.058 238 C 156.875 238, 158.907 237.854, 159.364 236.250 C 159.638 235.287, 160.397 231.800, 161.052 228.500 C 165.761 204.744, 180.108 174.678, 196.830 153.520 C 224.448 118.578, 263.187 94.786, 307.979 85.255 C 319.556 82.791, 322.346 82.587, 345 82.552 C 364.425 82.522, 371.413 82.881, 378.736 84.285 C 404.042 89.139, 426.743 98.070, 447.954 111.519 L 458.176 118 521.838 118.040 L 585.500 118.079 577.730 125.290 L 569.959 132.500 569.980 154.307 C 570 175.800, 570.028 176.094, 571.970 174.734 C 574.564 172.917, 585.056 162.888, 622.792 126.157 L 654.084 95.697 651.292 92.740 C 649.756 91.113, 640.850 82.536, 631.500 73.680 C 622.150 64.823, 606.400 49.873, 596.500 40.457 C 586.600 31.041, 576.587 21.634, 574.250 19.552 L 570 15.767 570 36.109 M 317.500 115.073 C 306.130 115.934, 285.320 118.353, 278.250 119.634 L 275 120.223 275 194.611 L 275 269 259.500 269 L 244 269 244 284.500 L 244 300 259.500 300 L 275 300 275 318.500 L 275 337 259.500 337 L 244 337 244 351 L 244 365 259.500 365 L 275 365 275 399 L 275 433 295.500 433 L 316 433 316 399 L 316 365 370.500 365 L 425 365 425 351 L 425 337 370.500 337 L 316 337 316 318.627 L 316 300.254 344.750 299.679 C 374.374 299.086, 381.875 298.280, 398 293.960 C 434.696 284.128, 457.346 261.376, 464.660 227 C 467.188 215.120, 467.157 191.234, 464.602 181.500 C 455.359 146.288, 427.928 123.988, 384.500 116.381 C 373.648 114.480, 335.216 113.730, 317.500 115.073 M 344.500 145.725 C 336.814 145.984, 319.467 147.884, 317.341 148.699 C 316.240 149.122, 316 159.955, 316 209.202 L 316 269.189 343.250 268.752 C 367.518 268.363, 371.368 268.072, 378.428 266.097 C 392.177 262.251, 403.570 255.673, 411.024 247.276 C 416.774 240.798, 422.547 228.613, 424.030 219.823 C 425.844 209.067, 424.847 190.939, 422.040 183.660 C 411.870 157.279, 385.433 144.345, 344.500 145.725 M 475.020 150.752 C 467.405 154.577, 464.555 165.316, 468.905 173.790 C 472.577 180.942, 472.899 181, 508.756 181 C 540.306 181, 540.747 180.972, 544.102 178.730 C 553.960 172.144, 552.908 154.784, 542.383 150.387 C 539.801 149.308, 532.342 149, 508.782 149.002 C 481.948 149.003, 478.104 149.202, 475.020 150.752 M 515.241 355.297 C 483.297 419.560, 417.737 460, 345.500 460 C 324.330 460, 300.235 455.914, 280.500 448.977 C 263.866 443.131, 239.129 428.722, 224.159 416.160 L 216.819 410 190.073 410 C 175.363 410, 144.435 409.703, 121.344 409.340 L 79.359 408.680 88.180 400.090 L 97.001 391.500 97.001 369.667 C 97 357.067, 96.617 347.974, 96.095 348.167 C 94.768 348.656, 13 428.276, 13 429.080 C 13 429.454, 22.089 438.477, 33.197 449.130 C 44.306 459.784, 62.854 477.612, 74.415 488.750 C 85.977 499.887, 95.788 509, 96.218 509 C 96.648 509, 97 499.929, 97 488.842 L 97 468.684 91 462.922 C 87.700 459.752, 85 457.011, 85 456.829 C 84.999 456.648, 106.037 456.725, 131.750 457 L 178.500 457.500 189.929 466.294 C 222.221 491.141, 259.626 507.607, 301 515.186 C 312.229 517.243, 316.448 517.471, 342.500 517.426 C 369.685 517.379, 372.345 517.210, 385 514.728 C 414.575 508.928, 438.012 500.285, 461.753 486.422 C 501.621 463.143, 532.303 431.427, 553.965 391.105 C 562.451 375.307, 572 351.595, 572 346.318 C 572 345.261, 566.885 345, 546.180 345 L 520.360 345 515.241 355.297 M 131.368 349.068 C 129.646 349.578, 126.657 351.745, 124.726 353.882 C 118.562 360.704, 118.817 370.523, 125.321 376.826 C 130.346 381.697, 135.877 382.196, 180.716 381.823 C 219.424 381.501, 219.507 381.495, 223.281 379.149 C 228.099 376.154, 231 370.531, 231 364.188 C 231 358.360, 228.219 353.622, 222.997 350.554 C 219.632 348.577, 217.899 348.493, 177 348.320 C 153.172 348.219, 133.124 348.547, 131.368 349.068" stroke="none" fill="#34434b" fillRule="evenodd"/></svg>